<svg xmlns="http://www.w3.org/2000/svg" width="128" height="104" viewBox="0 0 128 104">
<title>rotation</title>
<polygon points="93.31,68.92 69.86,82.46 69.86,28.31" fill="rgb(96,126,215)" fill-opacity="1.000"/>
<polygon points="69.86,28.31 93.31,14.77 93.31,68.92" fill="rgb(96,126,215)" fill-opacity="1.000"/>
<polygon points="69.86,82.46 46.41,96.00 46.41,41.85" fill="rgb(215,106,106)" fill-opacity="1.000"/>
<polygon points="46.41,41.85 46.41,96.00 34.69,89.23" fill="rgb(81,107,185)" fill-opacity="1.000"/>
<polygon points="81.59,8.00 93.31,14.77 46.41,41.85" fill="rgb(96,126,215)" fill-opacity="1.000"/>
<polygon points="46.41,41.85 69.86,28.31 69.86,82.46" fill="rgb(215,106,106)" fill-opacity="1.000"/>
<polygon points="34.69,89.23 34.69,35.08 46.41,41.85" fill="rgb(81,107,185)" fill-opacity="1.000"/>
<polygon points="46.41,41.85 34.69,35.08 81.59,8.00" fill="rgb(96,126,215)" fill-opacity="1.000"/>
<polyline points="93.31,68.92 93.31,14.77" fill="none" stroke="#343a40" stroke-width=".65"/>
<polyline points="93.31,14.77 81.59,8.00" fill="none" stroke="#343a40" stroke-width=".65"/>
<polyline points="34.69,89.23 34.69,35.08" fill="none" stroke="#343a40" stroke-width=".65"/>
<polyline points="34.69,35.08 46.41,41.85" fill="none" stroke="#343a40" stroke-width=".65"/>
<polyline points="46.41,41.85 46.41,96.00" fill="none" stroke="#343a40" stroke-width=".65"/>
<polyline points="46.41,96.00 34.69,89.23" fill="none" stroke="#343a40" stroke-width=".65"/>
<polyline points="81.59,8.00 34.69,35.08" fill="none" stroke="#343a40" stroke-width=".65"/>
<polyline points="93.31,68.92 69.86,82.46" fill="none" stroke="#343a40" stroke-width=".65"/>
<polyline points="69.86,82.46 69.86,28.31" fill="none" stroke="#343a40" stroke-width=".65"/>
<polyline points="69.86,28.31 93.31,14.77" fill="none" stroke="#343a40" stroke-width=".65"/>
<polyline points="93.31,14.77 93.31,68.92" fill="none" stroke="#343a40" stroke-width=".65"/>
<polyline points="69.86,82.46 46.41,96.00" fill="none" stroke="#343a40" stroke-width=".65"/>
<polyline points="46.41,96.00 46.41,41.85" fill="none" stroke="#343a40" stroke-width=".65"/>
<polyline points="46.41,41.85 69.86,28.31" fill="none" stroke="#343a40" stroke-width=".65"/>
<polyline points="69.86,28.31 69.86,82.46" fill="none" stroke="#343a40" stroke-width=".65"/>
<polyline points="34.69,89.23 46.41,96.00" fill="none" stroke="#343a40" stroke-width=".65"/>
<polyline points="81.59,8.00 93.31,14.77" fill="none" stroke="#343a40" stroke-width=".65"/>
<polyline points="93.31,14.77 46.41,41.85" fill="none" stroke="#343a40" stroke-width=".65"/>
<polyline points="46.41,41.85 34.69,35.08" fill="none" stroke="#343a40" stroke-width=".65"/>
<polyline points="34.69,35.08 81.59,8.00" fill="none" stroke="#343a40" stroke-width=".65"/>
</svg>
