<svg xmlns="http://www.w3.org/2000/svg" width="128" height="104" viewBox="0 0 128 104">
<title>walking</title>
<polygon points="31.34,96.00 53.11,83.43 118.44,20.57" fill="rgb(84,111,191)" fill-opacity="1.000"/>
<polygon points="9.56,83.43 31.34,96.00 96.66,33.14" fill="rgb(215,106,106)" fill-opacity="1.000"/>
<polygon points="96.66,33.14 74.89,20.57 9.56,83.43" fill="rgb(215,106,106)" fill-opacity="1.000"/>
<polygon points="118.44,20.57 96.66,33.14 31.34,96.00" fill="rgb(84,111,191)" fill-opacity="1.000"/>
<polygon points="118.44,20.57 96.66,8.00 74.89,20.57" fill="rgb(96,126,215)" fill-opacity="1.000"/>
<polygon points="74.89,20.57 96.66,33.14 118.44,20.57" fill="rgb(96,126,215)" fill-opacity="1.000"/>
<polyline points="53.11,83.43 31.34,96.00" fill="none" stroke="#343a40" stroke-width=".65"/>
<polyline points="31.34,96.00 9.56,83.43" fill="none" stroke="#343a40" stroke-width=".65"/>
<polyline points="74.89,20.57 96.66,33.14" fill="none" stroke="#343a40" stroke-width=".65"/>
<polyline points="96.66,33.14 118.44,20.57" fill="none" stroke="#343a40" stroke-width=".65"/>
<polyline points="118.44,20.57 96.66,8.00" fill="none" stroke="#343a40" stroke-width=".65"/>
<polyline points="96.66,8.00 74.89,20.57" fill="none" stroke="#343a40" stroke-width=".65"/>
<polyline points="31.34,96.00 53.11,83.43" fill="none" stroke="#343a40" stroke-width=".65"/>
<polyline points="53.11,83.43 118.44,20.57" fill="none" stroke="#343a40" stroke-width=".65"/>
<polyline points="118.44,20.57 96.66,33.14" fill="none" stroke="#343a40" stroke-width=".65"/>
<polyline points="96.66,33.14 31.34,96.00" fill="none" stroke="#343a40" stroke-width=".65"/>
<polyline points="9.56,83.43 74.89,20.57" fill="none" stroke="#343a40" stroke-width=".65"/>
<polyline points="74.89,20.57 96.66,8.00" fill="none" stroke="#343a40" stroke-width=".65"/>
<polyline points="96.66,8.00 118.44,20.57" fill="none" stroke="#343a40" stroke-width=".65"/>
<polyline points="118.44,20.57 53.11,83.43" fill="none" stroke="#343a40" stroke-width=".65"/>
<polyline points="9.56,83.43 31.34,96.00" fill="none" stroke="#343a40" stroke-width=".65"/>
<polyline points="31.34,96.00 96.66,33.14" fill="none" stroke="#343a40" stroke-width=".65"/>
<polyline points="96.66,33.14 74.89,20.57" fill="none" stroke="#343a40" stroke-width=".65"/>
<polyline points="74.89,20.57 9.56,83.43" fill="none" stroke="#343a40" stroke-width=".65"/>
</svg>
