<svg xmlns="http://www.w3.org/2000/svg" width="1458" height="448" viewBox="0 0 1458 448" role="img" aria-label="Bloq IR dependency graph"><style>text{font-family:system-ui,sans-serif;font-size:13px;fill:#202536}.region{fill:#f7f8fc;stroke:#758198}.quantum{fill:#e6edff;stroke:#4a65b8}.classical{fill:#e8f6ed;stroke:#4b8c67}</style><defs><marker id="quantum" markerWidth="7" markerHeight="7" refX="6" refY="3" orient="auto"><path d="M0 0 L6 3 L0 6 Z" fill="#4a65b8"/></marker><marker id="compose" markerWidth="7" markerHeight="7" refX="6" refY="3" orient="auto"><path d="M0 0 L6 3 L0 6 Z" fill="#b788ee"/></marker><marker id="value" markerWidth="7" markerHeight="7" refX="6" refY="3" orient="auto"><path d="M0 0 L6 3 L0 6 Z" fill="#4b8c67"/></marker><marker id="order" markerWidth="7" markerHeight="7" refX="6" refY="3" orient="auto"><path d="M0 0 L6 3 L0 6 Z" fill="#758198"/></marker></defs><rect width="100%" height="100%" fill="white"/><g transform="translate(24 24)"><path data-edge="quantum" d="M190 130 C210 130 210 130 230 130 " fill="none" stroke="#4a65b8" stroke-width="1.5" marker-end="url(#quantum)"/><path data-edge="quantum" d="M420 130 C440 130 440 130 460 130 " fill="none" stroke="#4a65b8" stroke-width="1.5" marker-end="url(#quantum)"/><path data-edge="quantum" d="M190 280 C210 280 210 280 230 280 " fill="none" stroke="#4a65b8" stroke-width="1.5" marker-end="url(#quantum)"/><path data-edge="quantum" d="M409 250 C412.66666 250 416.33334 250 420 250 C440 250 440 160 460 160 C467.625 160 475.25 160 482.875 160 " fill="none" stroke="#4a65b8" stroke-width="1.5" marker-end="url(#quantum)"/><path data-edge="quantum" d="M420 280 C440 280 440 280 460 280 " fill="none" stroke="#4a65b8" stroke-width="1.5" marker-end="url(#quantum)"/><path data-edge="quantum" d="M650 116.9863 C670 116.9863 670 100.07828 690 100.07828 " fill="none" stroke="#4a65b8" stroke-width="1.5" marker-end="url(#quantum)"/><path data-edge="quantum" d="M650 280 C670 280 670 280 690 280 " fill="none" stroke="#4a65b8" stroke-width="1.5" marker-end="url(#quantum)"/><path data-edge="order" d="M190 130 C210 130 210 130 230 130 " fill="none" stroke="#758198" stroke-width="1.5" stroke-dasharray="4 3" marker-end="url(#order)"/><path data-edge="order" d="M190 280 C210 280 210 280 230 280 " fill="none" stroke="#758198" stroke-width="1.5" stroke-dasharray="4 3" marker-end="url(#order)"/><path data-edge="order" d="M409 250 C412.66666 250 416.33334 250 420 250 C440 250 440 160 460 160 C467.625 160 475.25 160 482.875 160 " fill="none" stroke="#758198" stroke-width="1.5" stroke-dasharray="4 3" marker-end="url(#order)"/><path data-edge="order" d="M420 130 C440 130 440 130 460 130 " fill="none" stroke="#758198" stroke-width="1.5" stroke-dasharray="4 3" marker-end="url(#order)"/><path data-edge="order" d="M420 280 C440 280 440 280 460 280 " fill="none" stroke="#758198" stroke-width="1.5" stroke-dasharray="4 3" marker-end="url(#order)"/><path data-edge="order" d="M650 116.9863 C670 116.9863 670 100.07828 690 100.07828 " fill="none" stroke="#758198" stroke-width="1.5" stroke-dasharray="4 3" marker-end="url(#order)"/><path data-edge="order" d="M650 280 C670 280 670 280 690 280 " fill="none" stroke="#758198" stroke-width="1.5" stroke-dasharray="4 3" marker-end="url(#order)"/><path data-edge="value" d="M1110 30 C1130 30 1130 30 1150 30 " fill="none" stroke="#4b8c67" stroke-width="1.5" marker-end="url(#value)"/><path data-edge="value" d="M1110 130 C1130 130 1130 130 1150 130 " fill="none" stroke="#4b8c67" stroke-width="1.5" marker-end="url(#value)"/><path data-edge="value" d="M1110 230 C1130 230 1130 230 1150 230 " fill="none" stroke="#4b8c67" stroke-width="1.5" marker-end="url(#value)"/><path data-edge="value" d="M1110 330 C1130 330 1130 330 1150 330 " fill="none" stroke="#4b8c67" stroke-width="1.5" marker-end="url(#value)"/><path data-edge="order" d="M880 66.9863 C900 66.9863 900 50.078278 920 50.078278 " fill="none" stroke="#758198" stroke-width="1.5" stroke-dasharray="4 3" marker-end="url(#order)"/><path data-edge="order" d="M880 93.0137 C900 93.0137 900 109.92172 920 109.92172 " fill="none" stroke="#758198" stroke-width="1.5" stroke-dasharray="4 3" marker-end="url(#order)"/><path data-edge="order" d="M650 142.97815 C670 142.97815 670 180 690 180 C721.8333 180 753.6667 180 785.5 180 C817 180 848.5 180 880 180 C900 180 900 216.95055 920 216.95055 " fill="none" stroke="#758198" stroke-width="1.5" stroke-dasharray="4 3" marker-end="url(#order)"/><path data-edge="order" d="M880 266.9863 C900 266.9863 900 250.07828 920 250.07828 " fill="none" stroke="#758198" stroke-width="1.5" stroke-dasharray="4 3" marker-end="url(#order)"/><path data-edge="order" d="M880 293.0137 C900 293.0137 900 309.92172 920 309.92172 " fill="none" stroke="#758198" stroke-width="1.5" stroke-dasharray="4 3" marker-end="url(#order)"/><g data-node="0"><rect class="quantum" x="0" y="100" width="190" height="60" rx="7"/><text x="12" y="123">N0 · Quantum</text><text x="12" y="144">1 instances · 0 guards</text></g><g data-node="1"><rect class="quantum" x="230" y="100" width="190" height="60" rx="7"/><text x="242" y="123">N1 · Quantum</text><text x="242" y="144">1 instances · 0 guards</text></g><g data-node="2"><rect class="quantum" x="0" y="250" width="190" height="60" rx="7"/><text x="12" y="273">N2 · Quantum</text><text x="12" y="294">1 instances · 0 guards</text></g><g data-node="3"><rect class="quantum" x="230" y="250" width="190" height="60" rx="7"/><text x="242" y="273">N3 · Quantum</text><text x="242" y="294">2 instances · 0 guards</text></g><g data-node="4"><rect class="quantum" x="460" y="100" width="190" height="60" rx="7"/><text x="472" y="123">N4 · Quantum</text><text x="472" y="144">2 instances · 0 guards</text></g><g data-node="5"><rect class="quantum" x="690" y="50" width="190" height="60" rx="7"/><text x="702" y="73">N5 · Quantum</text><text x="702" y="94">1 instances · 0 guards</text></g><g data-node="6"><rect class="quantum" x="460" y="250" width="190" height="60" rx="7"/><text x="472" y="273">N6 · Quantum</text><text x="472" y="294">1 instances · 0 guards</text></g><g data-node="7"><rect class="quantum" x="690" y="250" width="190" height="60" rx="7"/><text x="702" y="273">N7 · Quantum</text><text x="702" y="294">1 instances · 0 guards</text></g><g data-node="10"><rect class="classical" x="920" y="0" width="190" height="60" rx="7"/><text x="932" y="23">N10 · Observable 0</text><text x="932" y="44">generator 0</text></g><g data-node="11"><rect class="classical" x="1150" y="0" width="260" height="60" rx="7"/><text x="1162" y="23">N11 · Compute · Output frame Z</text><text x="1162" y="44">frame z (1,1,3)</text></g><g data-node="18"><rect class="classical" x="920" y="100" width="190" height="60" rx="7"/><text x="932" y="123">N18 · Observable 1</text><text x="932" y="144">generator 1</text></g><g data-node="19"><rect class="classical" x="1150" y="100" width="260" height="60" rx="7"/><text x="1162" y="123">N19 · Compute · Output frame X</text><text x="1162" y="144">frame x (1,1,3)</text></g><g data-node="25"><rect class="classical" x="920" y="200" width="190" height="60" rx="7"/><text x="932" y="223">N25 · Observable 2</text><text x="932" y="244">generator 2</text></g><g data-node="26"><rect class="classical" x="1150" y="200" width="260" height="60" rx="7"/><text x="1162" y="223">N26 · Compute · Output frame Z</text><text x="1162" y="244">frame z (0,0,3)</text></g><g data-node="28"><rect class="classical" x="920" y="300" width="190" height="60" rx="7"/><text x="932" y="323">N28 · Observable 3</text><text x="932" y="344">generator 3</text></g><g data-node="29"><rect class="classical" x="1150" y="300" width="260" height="60" rx="7"/><text x="1162" y="323">N29 · Compute · Output frame X</text><text x="1162" y="344">frame x (0,0,3)</text></g><g transform="translate(0 388)"><text style="fill:#4a65b8">Quantum</text><text x="100" style="fill:#b788ee">Compose</text><text x="210" style="fill:#4b8c67">Value</text><text x="280" style="fill:#758198">Order (dashed)</text></g></g></svg>