<svg xmlns="http://www.w3.org/2000/svg" width="128" height="104" viewBox="0 0 128 104">
<title>pipe</title>
<polygon points="48.76,43.20 76.19,59.04 18.27,60.80" fill="rgb(81,107,185)" fill-opacity="1.000"/>
<polygon points="48.76,43.20 48.76,8.00 76.19,59.04" fill="rgb(185,90,90)" fill-opacity="1.000"/>
<polygon points="45.71,76.64 18.27,60.80 76.19,59.04" fill="rgb(81,107,185)" fill-opacity="1.000"/>
<polygon points="76.19,23.84 76.19,59.04 48.76,8.00" fill="rgb(185,90,90)" fill-opacity="1.000"/>
<polygon points="76.19,59.04 82.29,62.56 45.71,76.64" fill="rgb(81,107,185)" fill-opacity="1.000"/>
<polygon points="76.19,59.04 76.19,23.84 82.29,62.56" fill="rgb(185,90,90)" fill-opacity="1.000"/>
<polygon points="48.76,8.00 18.27,25.60 76.19,23.84" fill="rgb(96,126,215)" fill-opacity="1.000"/>
<polygon points="18.27,60.80 45.71,76.64 18.27,25.60" fill="rgb(215,106,106)" fill-opacity="1.000"/>
<polygon points="51.81,80.16 45.71,76.64 82.29,62.56" fill="rgb(81,107,185)" fill-opacity="1.000"/>
<polygon points="82.29,27.36 82.29,62.56 76.19,23.84" fill="rgb(185,90,90)" fill-opacity="1.000"/>
<polygon points="82.29,62.56 109.73,78.40 51.81,80.16" fill="rgb(81,107,185)" fill-opacity="1.000"/>
<polygon points="82.29,62.56 82.29,27.36 109.73,78.40" fill="rgb(185,90,90)" fill-opacity="1.000"/>
<polygon points="45.71,41.44 76.19,23.84 18.27,25.60" fill="rgb(96,126,215)" fill-opacity="1.000"/>
<polygon points="45.71,41.44 18.27,25.60 45.71,76.64" fill="rgb(215,106,106)" fill-opacity="1.000"/>
<polygon points="76.19,23.84 45.71,41.44 82.29,27.36" fill="rgb(96,126,215)" fill-opacity="1.000"/>
<polygon points="45.71,76.64 51.81,80.16 45.71,41.44" fill="rgb(215,106,106)" fill-opacity="1.000"/>
<polygon points="79.24,96.00 51.81,80.16 109.73,78.40" fill="rgb(81,107,185)" fill-opacity="1.000"/>
<polygon points="109.73,43.20 109.73,78.40 82.29,27.36" fill="rgb(185,90,90)" fill-opacity="1.000"/>
<polygon points="51.81,44.96 82.29,27.36 45.71,41.44" fill="rgb(96,126,215)" fill-opacity="1.000"/>
<polygon points="51.81,44.96 45.71,41.44 51.81,80.16" fill="rgb(215,106,106)" fill-opacity="1.000"/>
<polygon points="82.29,27.36 51.81,44.96 109.73,43.20" fill="rgb(96,126,215)" fill-opacity="1.000"/>
<polygon points="51.81,80.16 79.24,96.00 51.81,44.96" fill="rgb(215,106,106)" fill-opacity="1.000"/>
<polygon points="79.24,60.80 109.73,43.20 51.81,44.96" fill="rgb(96,126,215)" fill-opacity="1.000"/>
<polygon points="79.24,60.80 51.81,44.96 79.24,96.00" fill="rgb(215,106,106)" fill-opacity="1.000"/>
<polyline points="48.76,8.00 18.27,25.60" fill="none" stroke="#343a40" stroke-width=".65"/>
<polyline points="18.27,25.60 18.27,60.80" fill="none" stroke="#343a40" stroke-width=".65"/>
<polyline points="18.27,60.80 18.27,25.60" fill="none" stroke="#343a40" stroke-width=".65"/>
<polyline points="48.76,8.00 18.27,25.60" fill="none" stroke="#343a40" stroke-width=".65"/>
<polyline points="79.24,60.80 109.73,43.20" fill="none" stroke="#343a40" stroke-width=".65"/>
<polyline points="79.24,96.00 79.24,60.80" fill="none" stroke="#343a40" stroke-width=".65"/>
<polyline points="79.24,96.00 79.24,60.80" fill="none" stroke="#343a40" stroke-width=".65"/>
<polyline points="109.73,43.20 79.24,60.80" fill="none" stroke="#343a40" stroke-width=".65"/>
<polyline points="18.27,60.80 79.24,96.00" fill="none" stroke="#343a40" stroke-width=".65"/>
<polyline points="18.27,25.60 79.24,60.80" fill="none" stroke="#343a40" stroke-width=".65"/>
<polyline points="109.73,43.20 79.24,60.80" fill="none" stroke="#343a40" stroke-width=".65"/>
<polyline points="18.27,25.60 48.76,8.00" fill="none" stroke="#343a40" stroke-width=".65"/>
<polyline points="109.73,43.20 48.76,8.00" fill="none" stroke="#343a40" stroke-width=".65"/>
<polyline points="18.27,60.80 79.24,96.00" fill="none" stroke="#343a40" stroke-width=".65"/>
<polyline points="79.24,60.80 79.24,96.00" fill="none" stroke="#343a40" stroke-width=".65"/>
<polyline points="18.27,60.80 18.27,25.60" fill="none" stroke="#343a40" stroke-width=".65"/>
<polyline points="79.24,60.80 18.27,25.60" fill="none" stroke="#343a40" stroke-width=".65"/>
<polyline points="109.73,43.20 48.76,8.00" fill="none" stroke="#343a40" stroke-width=".65"/>
<polyline points="18.27,60.80 18.27,25.60" fill="none" stroke="#343a40" stroke-width=".65"/>
<polyline points="48.76,8.00 18.27,25.60" fill="none" stroke="#343a40" stroke-width=".65"/>
<polyline points="79.24,96.00 79.24,60.80" fill="none" stroke="#343a40" stroke-width=".65"/>
<polyline points="109.73,43.20 79.24,60.80" fill="none" stroke="#343a40" stroke-width=".65"/>
</svg>
